<svg xmlns="http://www.w3.org/2000/svg" viewBox="0 0 64 64">
  <defs>
    <linearGradient id="bg" x1="0" y1="0" x2="1" y2="1">
      <stop offset="0%" stop-color="#0f766e"/>
      <stop offset="100%" stop-color="#14532d"/>
    </linearGradient>
  </defs>
  <rect width="64" height="64" rx="14" fill="url(#bg)"/>
  <circle cx="24" cy="24" r="12" fill="#f8fafc"/>
  <polygon points="24,17 28.8,20.5 27,26.2 21,26.2 19.2,20.5" fill="#111827"/>
  <path d="M24 17 16.5 21.7l2.2 8.2L24 34l5.3-4.1 2.2-8.2Z" fill="none" stroke="#111827" stroke-width="1.8" stroke-linejoin="round"/>
  <path d="M18.7 29.9 16 37l8-2.2M29.3 29.9 32 37l-8-2.2M16.5 21.7 11 24.5l5 5.4M31.5 21.7 37 24.5l-5 5.4" fill="none" stroke="#111827" stroke-width="1.8" stroke-linecap="round" stroke-linejoin="round"/>
  <path d="M40 45V20M40 45l6-6M40 45l-6-6M48 45V28M56 45V12" fill="none" stroke="#fde68a" stroke-width="4" stroke-linecap="round" stroke-linejoin="round"/>
</svg>
